Patient4_TMGait_0pt2_03_right_19_EMG.mot
version=1
nRows=29
nColumns=33
inDegrees=no
endheader
time	1LAddLong	2LGlutMax	3LGlutMed	4LIliopsoas	5LSemiMemb	6LBicFemLong	7LRecFem	8LVastMed	9LVastLat	10LGasMed	11LTibAnt	12lTibPost	13LPeroneusLong	14LSol	15LExtDigLong	16LFlexDigLong	17RAddLong	18RGlutMax	19RGlutMed	20RIliopsoas	21RSemiMemb	22RBicFemLong	23RRecFem	24RVastMed	25RVastLat	26RGasMed	27RTibAnt	28RTibPost	29RPeroneusLong	30RSol	31RExtDigLong	32RFlexDigLong
42.315	-0.006104	0.006714	-0.003052	-0.01709	-0.021362	-0.022736	-0.015564	0.009003	0.010071	0.028839	-0.002136	0.011139	0.00946	-0.0177	-0.006714	0.003204	-0.012817	-0.097656	0.5545	-0.10315	-0.25528	0.032196	-0.032654	-0.028687	0.008698	0.006714	-0.084534	-0.006714	-0.16373	-0.079193	-0.006256	-0.012512
42.316	0.002289	-0.011292	-0.023499	0.00473	0.016174	-0.036316	0.002136	-0.000153	0.026703	0.009155	-0.010071	0.00351	-0.005188	-0.032349	-0.002441	-0.008698	0.026245	-0.095367	0.070496	-0.033722	0.064392	-0.064087	0.055237	-0.034943	-0.036774	0.001221	-0.048523	-0.009613	-0.18433	-0.12268	-0.003052	-0.013123
42.317	0.016174	-0.015411	-0.071259	0.003357	0.024719	-0.002594	-0.030212	0.000153	0.018616	0.001526	0.00473	0.004425	0.014954	-0.027161	-0.003815	-0.004578	0.032043	-0.080109	-0.37933	-0.013733	0.28641	-0.065308	0.026398	-0.084076	-0.074463	-0.013428	0.011292	-0.006104	-0.27664	-0.048218	-0.003357	-0.012817
42.318	0.007019	-0.037231	-0.058441	0.007629	-0.024872	0.048523	-0.022583	-0.001678	0.029297	-0.03418	0.00412	0.006561	0.012054	-0.009003	0.004883	0.002747	0.036926	-0.075531	-0.48172	0.006561	0.15411	-0.089569	0.088806	-0.054779	-0.07019	-0.011139	0.12528	-0.001831	-0.31921	0.001831	-0.003357	-0.012817
42.319	-0.001831	-0.010834	-0.057373	0.027008	-0.087891	0.04425	0.003967	0.008392	0.005035	-0.007629	0.006714	0.005035	0.007782	-0.021667	0.000305	0.000763	0.040588	-0.001526	-0.041046	-0.052185	0.097504	-0.10193	0.093384	-0.02182	-0.056	0.012817	0.14191	-0.007019	-0.27878	-0.037689	-0.00473	-0.016327
42.32	-0.022583	-0.027618	-0.097046	0.010834	-0.1088	0.052185	0.021667	0.006561	0.000305	0.03006	0.009155	0.00061	-0.018311	-0.002289	-0.000305	-0.004883	-0.010681	-0.054321	0.15289	-0.082397	0.1297	-0.009308	0.029755	-0.03067	-0.079956	0.020294	0.078125	0.001526	0.018616	-0.065765	-0.003052	-0.011292
42.321	-0.035553	-0.031891	-0.04425	-0.001221	-0.11047	0.046844	0.035095	0.003815	-0.010681	0.032196	0.011597	0.011139	-0.013123	-0.013885	-0.000763	0.00412	-0.048065	-0.10635	-0.0914	-0.099945	0.055847	0.09613	-0.12512	-0.030365	-0.075226	0.03952	0.031281	0.001373	0.24216	-0.18906	-0.001221	-0.016785
42.322	-0.053406	-0.054169	-0.02121	-0.006409	-0.082092	0.079041	0.04364	0.006409	-0.021667	0.044098	0.00824	-0.001373	0.001831	-0.017395	-0.003357	-0.007019	-0.000763	-0.10422	-0.2919	-0.035553	-0.11475	0.12085	-0.31311	0.007477	-0.055084	0.041046	0.021973	-0.004425	-0.19394	-0.46509	-0.000916	-0.012817
42.323	-0.049438	-0.008545	0.089569	0.017548	-0.032654	0.10315	0.029297	0.012054	-0.016022	0.041809	0.007629	0.005035	0.012817	-0.028229	0.004272	0.002594	0.037689	-0.083466	-0.16647	0.11963	-0.12192	0.042725	-0.21301	-0.061035	-0.029449	0.029602	0.063324	-0.04425	-0.67734	-0.92682	-0.003815	-0.010223
42.324	-0.016174	-0.043488	0.035858	0.023956	-0.027161	0.04837	0.018463	0.006866	-0.018158	-0.009003	0.007629	0.006256	0.022736	-0.031586	0.004578	-0.010834	0.041962	-0.092316	0.15015	0.15778	-0.028229	-0.019073	-0.18494	-0.11337	0.001221	-0.005188	0.068665	-0.15106	-0.45151	-1.3432	-0.002136	-0.021667
42.325	0.00885	-0.032043	0.037994	0.006866	0.057983	-0.00473	0.006104	-0.001373	-0.010376	-0.022888	0.004272	0.006409	-0.013428	-0.014954	-0.002441	-0.000305	0.037689	-0.08728	0.14389	0.1152	-0.012817	0	-0.18402	-0.071411	0.026703	-0.070038	-0.038147	-0.1947	-0.25879	-0.74707	-0.002899	-0.018616
42.326	0.014801	-0.051575	0.029297	-0.00473	0.038757	-0.014191	-0.020752	0.001678	0	-0.009613	0.00885	0.006256	-0.02121	0.003052	0.001831	0.001068	0.037384	-0.03067	0.043945	0.10483	-0.034332	0.028381	-0.21927	0.032043	0.001373	-0.096741	-0.10147	-0.63263	-0.31891	0.2478	-0.011597	-0.015717
42.327	0.028687	-0.019073	0.022583	0.001526	0.030823	-0.039215	-0.008392	0.038605	0.02243	0.001984	0.007477	0.001526	-0.009766	-0.002747	-0.002441	0.004425	0.038605	-0.11093	-0.21805	0.11078	-0.09491	-0.002136	-0.14557	0.14267	0.3035	-0.097961	-0.085754	0.52216	0.34836	0.68726	-0.00412	-0.024719
42.328	0.031738	0.044861	0.009613	0.005951	0.064545	-0.034332	-0.037079	0.018463	0.020142	0.013275	0.005798	0.014038	0.006256	-0.005798	-0.001221	-0.004578	0.079803	-0.030975	-0.29144	0.12711	-0.1561	-0.10803	-0.069122	0.1413	0.46799	-0.088196	-0.05188	0.1442	0.625	0.88654	-0.002899	-0.021057
42.329	0.032501	0.005188	0.016479	-0.006256	0.084991	-0.00824	-0.050659	-0.022736	0.015869	0.020142	-0.002899	0.018768	0.016632	0.00885	-0.003052	0.002441	0.083008	-0.092621	-0.038605	0.093384	-0.2829	-0.050659	-0.019073	0.072937	0.42191	-0.057526	-0.00824	0.13245	0.62485	0.4628	-0.001373	-0.016327
42.33	0.026093	0.01709	0.014954	0.001526	0.059967	-0.10635	-0.064392	-0.042419	-0.016174	0.005341	-0.000763	0.009308	0.023956	-0.009155	-0.00351	-0.00412	0.039978	-0.097809	0.018921	0.037231	-0.1561	0.070343	-0.095825	0.072327	0.31433	-0.012817	-0.033875	0.17883	0.71945	0.22919	-0.005341	-0.009766
42.331	0.017548	0.01297	-0.003357	0.011139	0.057526	-0.20035	-0.034027	0.008698	-0.008545	0.001984	0.002441	0.006104	0.013885	-0.014954	0.002136	0.002899	0.000305	-0.1207	-0.079346	0	0.62866	0.001831	-0.21515	0.1712	0.18723	0.008545	0.003662	0.095215	0.34454	0.58563	-0.003357	-0.011749
42.332	0.00824	-0.014343	-0.003052	0.003815	0.03067	-0.23895	-0.027313	0.015564	-0.0177	0.002441	0.008545	0.013275	-0.071411	0.005646	0.003052	0.00061	-0.066071	-0.13214	-0.20233	-0.009918	0.28366	0.044861	-0.39581	0.27176	0.072632	0.025635	0.043335	0.084686	0.047455	0.75775	-0.005188	-0.00824
42.333	0.007172	-0.013733	-0.023193	0.005188	-0.01236	-0.1651	-0.027161	0.007629	-0.011139	0.062561	-0.007324	0.010071	-0.007324	-0.004272	0.002441	0.003815	-0.081635	-0.075989	-0.23041	0.011444	0.18265	0.012512	-0.40344	0.2919	-0.15243	0.043488	0.040436	0.014191	-0.051422	0.80215	-0.001221	-0.001678
42.334	0.024872	0.015869	-0.010223	0.007477	-0.027466	-0.13229	-0.016479	0.002441	-0.015717	0.12009	0.001984	0.021362	0.005035	0.031433	0.001831	0.001831	-0.041656	-0.029297	-0.24445	0.054779	0.10895	-0.07843	-0.052948	0.20935	-0.57831	0.027924	0.006104	-0.001678	-0.086517	0.24414	-0.002594	-0.001068
42.335	0.029602	-0.002289	0.018158	0.00824	-0.02594	-0.067291	-0.030823	-0.005646	-0.023499	0.15915	0.00412	0.011292	-0.002289	0.00885	-0.009003	-0.002747	-0.020752	-0.095215	-0.23468	0.023956	0.042267	-0.065765	0.080109	0.022888	-0.6311	0.009918	0.019379	0.012512	-0.13046	-0.16693	-0.001221	-0.001221
42.336	0.0383	-0.022125	-0.012054	0.00885	0.044098	-0.056458	-0.018158	-0.023041	0.026398	0.15533	0.00473	0.009766	0.029297	0.014801	-0.002899	-0.005341	-0.007935	-0.085602	-0.37705	-0.022888	0.017395	-0.022278	-0.11322	-0.23544	-0.25681	-0.03067	0.007477	0.013885	-0.14648	-0.21851	0.003204	-0.004272
42.337	0.039063	-0.000916	-0.028076	0.006866	0.11902	-0.003815	0.017853	-0.022888	0.023346	-0.005341	0.001068	0.011444	-0.004272	0.018616	-0.003357	0.005188	0.03479	-0.066528	-0.39658	-0.028992	-0.011444	-0.048523	-0.14954	-0.40817	-0.054932	-0.019531	-0.000458	-0.014343	-0.13168	0.056305	-0.001984	-0.006866
42.338	0.027313	-0.021667	0.008087	0.018311	0.073242	0.065918	0.041351	-0.014496	-0.040283	-0.18082	0.010986	0.009613	-0.019684	0.031281	-0.010223	0.007324	0.040588	-0.015869	-0.30945	-0.022278	0.029602	-0.001678	-0.13748	-0.39063	0.000763	-0.006256	-0.014496	-0.029297	-0.14099	0.20187	-0.003052	-0.001373
42.339	0.016479	-0.021515	0.060577	0.007629	0.017395	0.088196	0.031433	-0.005341	-0.040741	-0.13229	0.000916	0.020599	0.032043	0.046844	-0.003357	-0.001678	0.038147	-0.028992	-0.30395	-0.000458	0.019684	0.074463	-0.18188	-0.38406	-0.04837	-0.002899	0.000153	-0.032043	-0.1651	0.14908	-0.003052	-0.006714
42.34	-0.009003	-0.000916	0.062866	0.014343	0.004578	0.082703	-0.002289	0.002441	-0.056152	-0.061188	-0.013885	0.013275	0.031891	0.028381	-0.003357	-0.002899	0.022736	0.039215	-0.18753	-0.001068	-0.092926	0.13473	-0.15213	-0.33966	-0.12131	0.002899	0.005493	-0.036316	-0.12528	0.024261	-0.00061	-0.011902
42.341	0.001068	0.01709	0.070496	0.007019	-0.027313	0.10147	-0.053711	0.007172	-0.037689	-0.021057	-0.001984	0.009003	0.023651	0.036011	-0.003815	0.000153	0.012512	-0.015411	0.0383	-0.016632	-0.13046	0.098877	-0.1355	-0.26291	-0.13657	-0.003052	0.022888	-0.042725	-0.098419	-0.10223	-0.001984	-0.00946
42.342	-0.00824	0	0.035858	0.007629	-0.070648	0.1181	-0.055695	0.009308	-0.000458	0.020905	-0.003815	0.016937	0.027008	0.047455	-0.000916	0.002899	0.020294	-0.041656	-0.00473	-0.088806	0.06134	-0.035553	-0.087433	-0.17578	-0.13534	0.003052	0.015717	-0.042572	-0.014801	0.076447	0.002594	-0.014801
42.343	-0.061798	-0.001068	-0.007019	-0.000305	-0.10056	0.11688	-0.071716	0.012817	0.030823	0.034943	-0.000763	0.013733	0.021057	0.057068	-0.000916	0.008545	0.007629	-0.016937	-0.040283	-0.16556	0.081482	-0.045776	-0.009155	-0.22415	-0.16113	0.004883	0.005798	-0.039673	0.015717	0.34363	0.014954	-0.011292
